<svg xmlns="http://www.w3.org/2000/svg" viewBox="0 0 234.182 41.31699"><defs><style>.cls-1{fill:#fc0019;}.cls-2{fill:#fff;}</style></defs><title>logo_l</title><g id="Layer_2" data-name="Layer 2"><g id="Layer_1-2" data-name="Layer 1"><path d="M68.435,16.06a17.74689,17.74689,0,0,0-6.732-1.573c-3.097,0-4.649.669-4.649,1.873,0,3.43,13.841.672,13.841,7.982,0,3.037-2.852,5.37-8.546,5.37a17.67573,17.67573,0,0,1-9.047-2.333l1.25-2.734a15.5013,15.5013,0,0,0,7.82,2.135c3.382,0,5.183-.976,5.183-2.438,0-3.746-13.838-.949-13.838-7.795,0-2.963,2.825-4.992,7.915-4.992a17.46,17.46,0,0,1,8.075,1.891L68.435,16.06"/><path d="M83.868,29.806c-5.523,0-10.11-3.677-10.11-9.183,0-5.44,4.587-9.186,10.11-9.186,5.557,0,10.072,3.746,10.072,9.186,0,5.506-4.515,9.183-10.072,9.183m0-15.408c-4.023,0-6.781,2.727-6.781,6.225,0,3.582,2.644,6.245,6.781,6.245,4.121,0,6.735-2.689,6.735-6.245C90.603,17.125,87.989,14.398,83.868,14.398Z"/><path d="M107.407,26.754a12.04332,12.04332,0,0,0,4.948-1.04V20.669h3.129V27.4a15.19516,15.19516,0,0,1-8.216,2.38c-5.807,0-10.186-3.672-10.186-9.184,0-5.413,4.447-9.159,10.186-9.159a12.99088,12.99088,0,0,1,8.073,2.564l-1.71,2.546a9.94183,9.94183,0,0,0-6.269-2.06c-4.239-.089-6.875,2.638-6.875,6.109,0,3.583,2.659,6.158,6.92,6.158"/><polyline points="119.988 29.32 119.988 11.971 135.798 11.971 135.798 14.836 123.207 14.836 123.207 19.048 132.994 19.048 132.994 21.914 123.207 21.914 123.207 26.452 136.353 26.452 136.353 29.32 119.988 29.32"/><polyline points="139.911 29.32 139.911 11.971 143.134 11.971 143.134 26.452 154.72 26.452 154.72 29.32 139.911 29.32"/><polyline points="157.41 29.32 157.41 11.971 173.212 11.971 173.212 14.836 160.624 14.836 160.624 19.048 170.411 19.048 170.411 21.914 160.624 21.914 160.624 26.452 173.769 26.452 173.769 29.32 157.41 29.32"/><path d="M180.549,25.105l-1.987,4.215h-3.476l8.443-17.349h3.384L195.38,29.32h-3.468l-1.998-4.215h-9.365m1.338-2.82h6.692l-3.331-7.033Z"/><path d="M211.715,16.06a17.783,17.783,0,0,0-6.736-1.573c-3.097,0-4.645.669-4.645,1.873,0,3.43,13.837.672,13.837,7.982,0,3.037-2.852,5.37-8.543,5.37a17.67005,17.67005,0,0,1-9.044-2.333l1.244-2.734a15.52246,15.52246,0,0,0,7.823,2.135c3.382,0,5.184-.976,5.184-2.438,0-3.746-13.835-.949-13.835-7.795,0-2.963,2.827-4.992,7.911-4.992a17.46239,17.46239,0,0,1,8.077,1.891l-1.273,2.614"/><polyline points="217.823 29.32 217.823 11.971 233.626 11.971 233.626 14.836 221.044 14.836 221.044 19.048 230.828 19.048 230.828 21.914 221.044 21.914 221.044 26.452 234.182 26.452 234.182 29.32 217.823 29.32"/><rect class="cls-1" width="41.315" height="21.07099"/><rect y="20.657" width="41.315" height="20.66"/><rect class="cls-2" x="7.218" y="19.40099" width="26.879" height="2.515"/></g></g></svg>
