
<svg xmlns="http://www.w3.org/2000/svg" viewBox="0 0 214.671 42.31702"><defs><style>.cls-1{fill:none;stroke:#fff;stroke-miterlimit:10;}.cls-2{fill:#fff;}.cls-3{fill:#fc0019;}</style></defs><title>logo_b</title><g id="Layer_2" data-name="Layer 2"><g id="Layer_1-2" data-name="Layer 1"><polygon class="cls-1" points="0.5 0.5 0.5 21.157 0.5 21.571 0.5 41.817 41.815 41.817 41.815 21.571 41.815 21.157 41.815 0.5 0.5 0.5"/><path class="cls-2" d="M68.935,16.56a17.74689,17.74689,0,0,0-6.732-1.573c-3.097,0-4.649.669-4.649,1.873,0,3.43,13.841.672,13.841,7.982,0,3.037-2.852,5.37-8.546,5.37a17.67573,17.67573,0,0,1-9.047-2.333l1.25-2.734a15.5013,15.5013,0,0,0,7.82,2.135c3.382,0,5.183-.976,5.183-2.438,0-3.746-13.838-.949-13.838-7.795,0-2.963,2.825-4.992,7.915-4.992a17.46,17.46,0,0,1,8.075,1.891L68.935,16.56"/><path class="cls-2" d="M84.368,30.306c-5.523,0-10.11-3.677-10.11-9.183,0-5.44,4.587-9.186,10.11-9.186,5.557,0,10.072,3.746,10.072,9.186,0,5.506-4.515,9.183-10.072,9.183m0-15.408c-4.023,0-6.781,2.727-6.781,6.225,0,3.582,2.644,6.245,6.781,6.245,4.121,0,6.735-2.689,6.735-6.245C91.103,17.625,88.489,14.898,84.368,14.898Z"/><path class="cls-2" d="M107.907,27.254a12.04332,12.04332,0,0,0,4.948-1.04V21.169h3.129V27.9a15.19516,15.19516,0,0,1-8.216,2.38c-5.807,0-10.186-3.672-10.186-9.184,0-5.413,4.447-9.159,10.186-9.159a12.99088,12.99088,0,0,1,8.073,2.564l-1.71,2.546a9.94183,9.94183,0,0,0-6.269-2.06c-4.239-.089-6.875,2.638-6.875,6.109,0,3.583,2.659,6.158,6.92,6.158"/><polyline class="cls-2" points="120.488 29.82 120.488 12.471 136.298 12.471 136.298 15.336 123.707 15.336 123.707 19.548 133.494 19.548 133.494 22.414 123.707 22.414 123.707 26.952 136.853 26.952 136.853 29.82 120.488 29.82"/><polyline class="cls-2" points="140.411 29.82 140.411 12.471 143.634 12.471 143.634 26.952 155.22 26.952 155.22 29.82 140.411 29.82"/><polyline class="cls-2" points="157.91 29.82 157.91 12.471 173.712 12.471 173.712 15.336 161.124 15.336 161.124 19.548 170.911 19.548 170.911 22.414 161.124 22.414 161.124 26.952 174.269 26.952 174.269 29.82 157.91 29.82"/><path class="cls-2" d="M181.049,25.605l-1.987,4.215h-3.476l8.443-17.349h3.384L195.88,29.82h-3.468l-1.998-4.215h-9.365m1.338-2.82h6.692l-3.331-7.033Z"/><path class="cls-2" d="M212.215,16.56a17.783,17.783,0,0,0-6.736-1.573c-3.097,0-4.645.669-4.645,1.873,0,3.43,13.837.672,13.837,7.982,0,3.037-2.852,5.37-8.543,5.37a17.67005,17.67005,0,0,1-9.044-2.333l1.244-2.734a15.52246,15.52246,0,0,0,7.823,2.135c3.382,0,5.184-.976,5.184-2.438,0-3.746-13.835-.949-13.835-7.795,0-2.963,2.827-4.992,7.911-4.992a17.46239,17.46239,0,0,1,8.077,1.891l-1.273,2.614"/><rect class="cls-3" x="0.5" y="0.50003" width="41.315" height="21.07099"/><rect x="0.5" y="21.15703" width="41.315" height="20.66"/><rect class="cls-2" x="7.718" y="19.90102" width="26.879" height="2.515"/></g></g></svg>
